<mxfile host="app.diagrams.net" agent="Mozilla/5.0 (Windows NT 10.0; Win64; x64) AppleWebKit/537.36 (KHTML, like Gecko) Chrome/134.0.0.0 Safari/537.36" version="26.2.2">
  <diagram name="Page-1" id="0g_11xDgqOgqhzZNZFZa">
    <mxGraphModel dx="3128" dy="777" grid="1" gridSize="10" guides="1" tooltips="1" connect="1" arrows="1" fold="1" page="1" pageScale="1" pageWidth="850" pageHeight="1100" math="0" shadow="0">
      <root>
        <mxCell id="0" />
        <mxCell id="1" parent="0" />
        <mxCell id="rCHzRvNCFQ7p66SC1ctn-4" value="" style="edgeStyle=orthogonalEdgeStyle;rounded=0;orthogonalLoop=1;jettySize=auto;html=1;fontSize=14;fontStyle=0" parent="1" source="rCHzRvNCFQ7p66SC1ctn-1" target="rCHzRvNCFQ7p66SC1ctn-3" edge="1">
          <mxGeometry relative="1" as="geometry">
            <Array as="points">
              <mxPoint x="-770" y="120" />
              <mxPoint x="-770" y="120" />
            </Array>
          </mxGeometry>
        </mxCell>
        <mxCell id="rCHzRvNCFQ7p66SC1ctn-1" value="Start" style="strokeWidth=2;html=1;shape=mxgraph.flowchart.start_1;whiteSpace=wrap;fontSize=14;fontStyle=0" parent="1" vertex="1">
          <mxGeometry x="-820" y="30" width="100" height="60" as="geometry" />
        </mxCell>
        <mxCell id="rCHzRvNCFQ7p66SC1ctn-6" value="" style="edgeStyle=orthogonalEdgeStyle;rounded=0;orthogonalLoop=1;jettySize=auto;html=1;fontSize=14;fontStyle=0" parent="1" source="rCHzRvNCFQ7p66SC1ctn-3" target="rCHzRvNCFQ7p66SC1ctn-5" edge="1">
          <mxGeometry relative="1" as="geometry" />
        </mxCell>
        <mxCell id="rCHzRvNCFQ7p66SC1ctn-3" value="Enter a,b,c" style="shape=parallelogram;html=1;strokeWidth=2;perimeter=parallelogramPerimeter;whiteSpace=wrap;rounded=1;arcSize=12;size=0.23;fontSize=14;fontStyle=0" parent="1" vertex="1">
          <mxGeometry x="-860" y="120" width="180" height="60" as="geometry" />
        </mxCell>
        <mxCell id="rCHzRvNCFQ7p66SC1ctn-8" value="" style="edgeStyle=orthogonalEdgeStyle;rounded=0;orthogonalLoop=1;jettySize=auto;html=1;fontSize=14;fontStyle=0" parent="1" source="rCHzRvNCFQ7p66SC1ctn-5" target="rCHzRvNCFQ7p66SC1ctn-7" edge="1">
          <mxGeometry relative="1" as="geometry" />
        </mxCell>
        <mxCell id="QID5HYyfcFJ8Ken0r9fT-1" value="True" style="edgeLabel;html=1;align=center;verticalAlign=middle;resizable=0;points=[];fontSize=14;fontStyle=0" parent="rCHzRvNCFQ7p66SC1ctn-8" vertex="1" connectable="0">
          <mxGeometry x="-0.4522" y="1" relative="1" as="geometry">
            <mxPoint as="offset" />
          </mxGeometry>
        </mxCell>
        <mxCell id="rCHzRvNCFQ7p66SC1ctn-14" value="" style="edgeStyle=orthogonalEdgeStyle;rounded=0;orthogonalLoop=1;jettySize=auto;html=1;fontSize=14;fontStyle=0" parent="1" source="rCHzRvNCFQ7p66SC1ctn-5" target="rCHzRvNCFQ7p66SC1ctn-13" edge="1">
          <mxGeometry relative="1" as="geometry" />
        </mxCell>
        <mxCell id="QID5HYyfcFJ8Ken0r9fT-2" value="False" style="edgeLabel;html=1;align=center;verticalAlign=middle;resizable=0;points=[];fontSize=14;fontStyle=0" parent="rCHzRvNCFQ7p66SC1ctn-14" vertex="1" connectable="0">
          <mxGeometry x="-0.4" y="-1" relative="1" as="geometry">
            <mxPoint as="offset" />
          </mxGeometry>
        </mxCell>
        <mxCell id="rCHzRvNCFQ7p66SC1ctn-5" value="a&amp;gt;=b" style="rhombus;whiteSpace=wrap;html=1;strokeWidth=2;rounded=1;arcSize=12;fontSize=14;fontStyle=0" parent="1" vertex="1">
          <mxGeometry x="-810" y="250" width="80" height="80" as="geometry" />
        </mxCell>
        <mxCell id="rCHzRvNCFQ7p66SC1ctn-10" value="" style="edgeStyle=orthogonalEdgeStyle;rounded=0;orthogonalLoop=1;jettySize=auto;html=1;fontSize=14;fontStyle=0" parent="1" source="rCHzRvNCFQ7p66SC1ctn-7" target="Ga3xgDzzd5rRUBb3BQOW-1" edge="1">
          <mxGeometry relative="1" as="geometry">
            <mxPoint x="-1120" y="480" as="targetPoint" />
          </mxGeometry>
        </mxCell>
        <mxCell id="QID5HYyfcFJ8Ken0r9fT-3" value="True" style="edgeLabel;html=1;align=center;verticalAlign=middle;resizable=0;points=[];fontSize=14;fontStyle=0" parent="rCHzRvNCFQ7p66SC1ctn-10" vertex="1" connectable="0">
          <mxGeometry x="-0.4632" y="-2" relative="1" as="geometry">
            <mxPoint as="offset" />
          </mxGeometry>
        </mxCell>
        <mxCell id="rCHzRvNCFQ7p66SC1ctn-12" value="" style="edgeStyle=orthogonalEdgeStyle;rounded=0;orthogonalLoop=1;jettySize=auto;html=1;fontSize=14;fontStyle=0" parent="1" source="rCHzRvNCFQ7p66SC1ctn-7" edge="1">
          <mxGeometry relative="1" as="geometry">
            <Array as="points">
              <mxPoint x="-850" y="390" />
            </Array>
            <mxPoint x="-850" y="480" as="targetPoint" />
          </mxGeometry>
        </mxCell>
        <mxCell id="QID5HYyfcFJ8Ken0r9fT-5" value="False" style="edgeLabel;html=1;align=center;verticalAlign=middle;resizable=0;points=[];fontSize=14;fontStyle=0" parent="rCHzRvNCFQ7p66SC1ctn-12" vertex="1" connectable="0">
          <mxGeometry x="-0.5333" y="1" relative="1" as="geometry">
            <mxPoint as="offset" />
          </mxGeometry>
        </mxCell>
        <mxCell id="rCHzRvNCFQ7p66SC1ctn-7" value="a&amp;gt;=c" style="rhombus;whiteSpace=wrap;html=1;strokeWidth=2;rounded=1;arcSize=12;fontSize=14;fontStyle=0" parent="1" vertex="1">
          <mxGeometry x="-1020" y="350" width="80" height="80" as="geometry" />
        </mxCell>
        <mxCell id="Ga3xgDzzd5rRUBb3BQOW-36" value="" style="edgeStyle=orthogonalEdgeStyle;rounded=0;orthogonalLoop=1;jettySize=auto;html=1;fontSize=14;fontStyle=0" edge="1" parent="1" source="rCHzRvNCFQ7p66SC1ctn-13" target="Ga3xgDzzd5rRUBb3BQOW-35">
          <mxGeometry relative="1" as="geometry" />
        </mxCell>
        <mxCell id="Ga3xgDzzd5rRUBb3BQOW-110" value="True" style="edgeLabel;html=1;align=center;verticalAlign=middle;resizable=0;points=[];fontSize=14;fontStyle=0" vertex="1" connectable="0" parent="Ga3xgDzzd5rRUBb3BQOW-36">
          <mxGeometry x="-0.2167" y="-2" relative="1" as="geometry">
            <mxPoint as="offset" />
          </mxGeometry>
        </mxCell>
        <mxCell id="Ga3xgDzzd5rRUBb3BQOW-51" value="" style="edgeStyle=orthogonalEdgeStyle;rounded=0;orthogonalLoop=1;jettySize=auto;html=1;fontSize=14;fontStyle=0" edge="1" parent="1" source="rCHzRvNCFQ7p66SC1ctn-13" target="Ga3xgDzzd5rRUBb3BQOW-50">
          <mxGeometry relative="1" as="geometry" />
        </mxCell>
        <mxCell id="Ga3xgDzzd5rRUBb3BQOW-111" value="False" style="edgeLabel;html=1;align=center;verticalAlign=middle;resizable=0;points=[];fontSize=14;fontStyle=0" vertex="1" connectable="0" parent="Ga3xgDzzd5rRUBb3BQOW-51">
          <mxGeometry x="-0.4" y="1" relative="1" as="geometry">
            <mxPoint as="offset" />
          </mxGeometry>
        </mxCell>
        <mxCell id="rCHzRvNCFQ7p66SC1ctn-13" value="b&amp;gt;=c" style="rhombus;whiteSpace=wrap;html=1;strokeWidth=2;rounded=1;arcSize=12;fontSize=14;fontStyle=0" parent="1" vertex="1">
          <mxGeometry x="-300" y="370" width="80" height="80" as="geometry" />
        </mxCell>
        <mxCell id="Ga3xgDzzd5rRUBb3BQOW-3" value="" style="edgeStyle=orthogonalEdgeStyle;rounded=0;orthogonalLoop=1;jettySize=auto;html=1;fontSize=14;fontStyle=0" edge="1" parent="1" source="Ga3xgDzzd5rRUBb3BQOW-1" target="Ga3xgDzzd5rRUBb3BQOW-2">
          <mxGeometry relative="1" as="geometry" />
        </mxCell>
        <mxCell id="Ga3xgDzzd5rRUBb3BQOW-94" value="True" style="edgeLabel;html=1;align=center;verticalAlign=middle;resizable=0;points=[];fontSize=14;fontStyle=0" vertex="1" connectable="0" parent="Ga3xgDzzd5rRUBb3BQOW-3">
          <mxGeometry x="-0.5" y="-2" relative="1" as="geometry">
            <mxPoint as="offset" />
          </mxGeometry>
        </mxCell>
        <mxCell id="Ga3xgDzzd5rRUBb3BQOW-9" value="" style="edgeStyle=orthogonalEdgeStyle;rounded=0;orthogonalLoop=1;jettySize=auto;html=1;fontSize=14;fontStyle=0" edge="1" parent="1" source="Ga3xgDzzd5rRUBb3BQOW-1" target="Ga3xgDzzd5rRUBb3BQOW-8">
          <mxGeometry relative="1" as="geometry" />
        </mxCell>
        <mxCell id="Ga3xgDzzd5rRUBb3BQOW-95" value="False" style="edgeLabel;html=1;align=center;verticalAlign=middle;resizable=0;points=[];fontSize=14;fontStyle=0" vertex="1" connectable="0" parent="Ga3xgDzzd5rRUBb3BQOW-9">
          <mxGeometry x="-0.6842" y="-1" relative="1" as="geometry">
            <mxPoint as="offset" />
          </mxGeometry>
        </mxCell>
        <mxCell id="Ga3xgDzzd5rRUBb3BQOW-1" value="a&amp;gt;=d" style="rhombus;whiteSpace=wrap;html=1;fontSize=14;fontStyle=0" vertex="1" parent="1">
          <mxGeometry x="-1390" y="450" width="80" height="80" as="geometry" />
        </mxCell>
        <mxCell id="Ga3xgDzzd5rRUBb3BQOW-5" value="" style="edgeStyle=orthogonalEdgeStyle;rounded=0;orthogonalLoop=1;jettySize=auto;html=1;fontSize=14;fontStyle=0" edge="1" parent="1" source="Ga3xgDzzd5rRUBb3BQOW-2" target="Ga3xgDzzd5rRUBb3BQOW-4">
          <mxGeometry relative="1" as="geometry">
            <Array as="points">
              <mxPoint x="-1530" y="600" />
            </Array>
          </mxGeometry>
        </mxCell>
        <mxCell id="Ga3xgDzzd5rRUBb3BQOW-96" value="True" style="edgeLabel;html=1;align=center;verticalAlign=middle;resizable=0;points=[];fontSize=14;fontStyle=0" vertex="1" connectable="0" parent="Ga3xgDzzd5rRUBb3BQOW-5">
          <mxGeometry x="-0.7077" y="2" relative="1" as="geometry">
            <mxPoint as="offset" />
          </mxGeometry>
        </mxCell>
        <mxCell id="Ga3xgDzzd5rRUBb3BQOW-7" value="" style="edgeStyle=orthogonalEdgeStyle;rounded=0;orthogonalLoop=1;jettySize=auto;html=1;fontSize=14;fontStyle=0" edge="1" parent="1" source="Ga3xgDzzd5rRUBb3BQOW-2" target="Ga3xgDzzd5rRUBb3BQOW-6">
          <mxGeometry relative="1" as="geometry">
            <Array as="points">
              <mxPoint x="-1390" y="600" />
            </Array>
          </mxGeometry>
        </mxCell>
        <mxCell id="Ga3xgDzzd5rRUBb3BQOW-97" value="False" style="edgeLabel;html=1;align=center;verticalAlign=middle;resizable=0;points=[];fontSize=14;fontStyle=0" vertex="1" connectable="0" parent="Ga3xgDzzd5rRUBb3BQOW-7">
          <mxGeometry x="-0.8308" y="-1" relative="1" as="geometry">
            <mxPoint as="offset" />
          </mxGeometry>
        </mxCell>
        <mxCell id="Ga3xgDzzd5rRUBb3BQOW-2" value="a&amp;gt;=e" style="rhombus;whiteSpace=wrap;html=1;fontSize=14;fontStyle=0" vertex="1" parent="1">
          <mxGeometry x="-1500" y="560" width="80" height="80" as="geometry" />
        </mxCell>
        <mxCell id="Ga3xgDzzd5rRUBb3BQOW-4" value="A is max" style="shape=parallelogram;perimeter=parallelogramPerimeter;whiteSpace=wrap;html=1;fixedSize=1;fontSize=14;fontStyle=0" vertex="1" parent="1">
          <mxGeometry x="-1590" y="700" width="120" height="60" as="geometry" />
        </mxCell>
        <mxCell id="Ga3xgDzzd5rRUBb3BQOW-6" value="E is max" style="shape=parallelogram;perimeter=parallelogramPerimeter;whiteSpace=wrap;html=1;fixedSize=1;fontSize=14;fontStyle=0" vertex="1" parent="1">
          <mxGeometry x="-1450" y="700" width="120" height="60" as="geometry" />
        </mxCell>
        <mxCell id="Ga3xgDzzd5rRUBb3BQOW-11" value="" style="edgeStyle=orthogonalEdgeStyle;rounded=0;orthogonalLoop=1;jettySize=auto;html=1;entryX=0.5;entryY=0;entryDx=0;entryDy=0;fontSize=14;fontStyle=0" edge="1" parent="1" target="Ga3xgDzzd5rRUBb3BQOW-10">
          <mxGeometry relative="1" as="geometry">
            <mxPoint x="-1180" y="600" as="sourcePoint" />
            <mxPoint x="-1260" y="660" as="targetPoint" />
            <Array as="points">
              <mxPoint x="-1260" y="600" />
              <mxPoint x="-1260" y="700" />
            </Array>
          </mxGeometry>
        </mxCell>
        <mxCell id="Ga3xgDzzd5rRUBb3BQOW-98" value="True" style="edgeLabel;html=1;align=center;verticalAlign=middle;resizable=0;points=[];fontSize=14;fontStyle=0" vertex="1" connectable="0" parent="Ga3xgDzzd5rRUBb3BQOW-11">
          <mxGeometry x="-0.3474" relative="1" as="geometry">
            <mxPoint as="offset" />
          </mxGeometry>
        </mxCell>
        <mxCell id="Ga3xgDzzd5rRUBb3BQOW-13" value="" style="edgeStyle=orthogonalEdgeStyle;rounded=0;orthogonalLoop=1;jettySize=auto;html=1;fontSize=14;fontStyle=0" edge="1" parent="1" source="Ga3xgDzzd5rRUBb3BQOW-8" target="Ga3xgDzzd5rRUBb3BQOW-12">
          <mxGeometry relative="1" as="geometry">
            <Array as="points">
              <mxPoint x="-1120" y="600" />
            </Array>
          </mxGeometry>
        </mxCell>
        <mxCell id="Ga3xgDzzd5rRUBb3BQOW-99" value="False" style="edgeLabel;html=1;align=center;verticalAlign=middle;resizable=0;points=[];fontSize=14;fontStyle=0" vertex="1" connectable="0" parent="Ga3xgDzzd5rRUBb3BQOW-13">
          <mxGeometry x="-0.8" y="-1" relative="1" as="geometry">
            <mxPoint as="offset" />
          </mxGeometry>
        </mxCell>
        <mxCell id="Ga3xgDzzd5rRUBb3BQOW-8" value="d&amp;gt;=e" style="rhombus;whiteSpace=wrap;html=1;fontSize=14;fontStyle=0" vertex="1" parent="1">
          <mxGeometry x="-1230" y="560" width="80" height="80" as="geometry" />
        </mxCell>
        <mxCell id="Ga3xgDzzd5rRUBb3BQOW-10" value="D is max" style="shape=parallelogram;perimeter=parallelogramPerimeter;whiteSpace=wrap;html=1;fixedSize=1;fontSize=14;fontStyle=0" vertex="1" parent="1">
          <mxGeometry x="-1330" y="700" width="120" height="60" as="geometry" />
        </mxCell>
        <mxCell id="Ga3xgDzzd5rRUBb3BQOW-12" value="E is max" style="shape=parallelogram;perimeter=parallelogramPerimeter;whiteSpace=wrap;html=1;fixedSize=1;fontSize=14;fontStyle=0" vertex="1" parent="1">
          <mxGeometry x="-1200" y="700" width="120" height="60" as="geometry" />
        </mxCell>
        <mxCell id="Ga3xgDzzd5rRUBb3BQOW-16" value="" style="edgeStyle=orthogonalEdgeStyle;rounded=0;orthogonalLoop=1;jettySize=auto;html=1;fontSize=14;fontStyle=0" edge="1" parent="1" source="Ga3xgDzzd5rRUBb3BQOW-14" target="Ga3xgDzzd5rRUBb3BQOW-15">
          <mxGeometry relative="1" as="geometry" />
        </mxCell>
        <mxCell id="Ga3xgDzzd5rRUBb3BQOW-107" value="True" style="edgeLabel;html=1;align=center;verticalAlign=middle;resizable=0;points=[];fontSize=14;fontStyle=0" vertex="1" connectable="0" parent="Ga3xgDzzd5rRUBb3BQOW-16">
          <mxGeometry x="-0.44" y="-1" relative="1" as="geometry">
            <mxPoint as="offset" />
          </mxGeometry>
        </mxCell>
        <mxCell id="Ga3xgDzzd5rRUBb3BQOW-25" value="" style="edgeStyle=orthogonalEdgeStyle;rounded=0;orthogonalLoop=1;jettySize=auto;html=1;fontSize=14;fontStyle=0" edge="1" parent="1" source="Ga3xgDzzd5rRUBb3BQOW-14" target="Ga3xgDzzd5rRUBb3BQOW-24">
          <mxGeometry relative="1" as="geometry" />
        </mxCell>
        <mxCell id="Ga3xgDzzd5rRUBb3BQOW-109" value="False" style="edgeLabel;html=1;align=center;verticalAlign=middle;resizable=0;points=[];fontSize=14;fontStyle=0" vertex="1" connectable="0" parent="Ga3xgDzzd5rRUBb3BQOW-25">
          <mxGeometry x="-0.5667" y="1" relative="1" as="geometry">
            <mxPoint as="offset" />
          </mxGeometry>
        </mxCell>
        <mxCell id="Ga3xgDzzd5rRUBb3BQOW-14" value="c&amp;gt;=d" style="rhombus;whiteSpace=wrap;html=1;fontSize=14;fontStyle=0" vertex="1" parent="1">
          <mxGeometry x="-890" y="440" width="80" height="80" as="geometry" />
        </mxCell>
        <mxCell id="Ga3xgDzzd5rRUBb3BQOW-20" value="" style="edgeStyle=orthogonalEdgeStyle;rounded=0;orthogonalLoop=1;jettySize=auto;html=1;exitX=0;exitY=0.5;exitDx=0;exitDy=0;fontSize=14;fontStyle=0" edge="1" parent="1" source="Ga3xgDzzd5rRUBb3BQOW-15">
          <mxGeometry relative="1" as="geometry">
            <mxPoint x="-970" y="610" as="sourcePoint" />
            <mxPoint x="-1010" y="700" as="targetPoint" />
            <Array as="points">
              <mxPoint x="-1010" y="570" />
            </Array>
          </mxGeometry>
        </mxCell>
        <mxCell id="Ga3xgDzzd5rRUBb3BQOW-100" value="True" style="edgeLabel;html=1;align=center;verticalAlign=middle;resizable=0;points=[];fontSize=14;fontStyle=0" vertex="1" connectable="0" parent="Ga3xgDzzd5rRUBb3BQOW-20">
          <mxGeometry x="-0.8" y="2" relative="1" as="geometry">
            <mxPoint as="offset" />
          </mxGeometry>
        </mxCell>
        <mxCell id="Ga3xgDzzd5rRUBb3BQOW-22" value="" style="edgeStyle=orthogonalEdgeStyle;rounded=0;orthogonalLoop=1;jettySize=auto;html=1;fontSize=14;fontStyle=0" edge="1" parent="1" source="Ga3xgDzzd5rRUBb3BQOW-15" target="Ga3xgDzzd5rRUBb3BQOW-21">
          <mxGeometry relative="1" as="geometry">
            <Array as="points">
              <mxPoint x="-870" y="570" />
            </Array>
          </mxGeometry>
        </mxCell>
        <mxCell id="Ga3xgDzzd5rRUBb3BQOW-101" value="False" style="edgeLabel;html=1;align=center;verticalAlign=middle;resizable=0;points=[];fontSize=14;fontStyle=0" vertex="1" connectable="0" parent="Ga3xgDzzd5rRUBb3BQOW-22">
          <mxGeometry x="-0.8625" relative="1" as="geometry">
            <mxPoint as="offset" />
          </mxGeometry>
        </mxCell>
        <mxCell id="Ga3xgDzzd5rRUBb3BQOW-15" value="c&amp;gt;=e" style="rhombus;whiteSpace=wrap;html=1;fontSize=14;fontStyle=0" vertex="1" parent="1">
          <mxGeometry x="-980" y="530" width="80" height="80" as="geometry" />
        </mxCell>
        <mxCell id="Ga3xgDzzd5rRUBb3BQOW-19" value="C is max" style="shape=parallelogram;perimeter=parallelogramPerimeter;whiteSpace=wrap;html=1;fixedSize=1;fontSize=14;fontStyle=0" vertex="1" parent="1">
          <mxGeometry x="-1080" y="700" width="120" height="60" as="geometry" />
        </mxCell>
        <mxCell id="Ga3xgDzzd5rRUBb3BQOW-21" value="E is max" style="shape=parallelogram;perimeter=parallelogramPerimeter;whiteSpace=wrap;html=1;fixedSize=1;fontSize=14;fontStyle=0" vertex="1" parent="1">
          <mxGeometry x="-950" y="700" width="120" height="60" as="geometry" />
        </mxCell>
        <mxCell id="Ga3xgDzzd5rRUBb3BQOW-31" value="" style="edgeStyle=orthogonalEdgeStyle;rounded=0;orthogonalLoop=1;jettySize=auto;html=1;fontSize=14;fontStyle=0" edge="1" parent="1" source="Ga3xgDzzd5rRUBb3BQOW-24" target="Ga3xgDzzd5rRUBb3BQOW-30">
          <mxGeometry relative="1" as="geometry">
            <Array as="points">
              <mxPoint x="-800" y="580" />
            </Array>
          </mxGeometry>
        </mxCell>
        <mxCell id="Ga3xgDzzd5rRUBb3BQOW-34" value="" style="edgeStyle=orthogonalEdgeStyle;rounded=0;orthogonalLoop=1;jettySize=auto;html=1;fontSize=14;fontStyle=0" edge="1" parent="1" source="Ga3xgDzzd5rRUBb3BQOW-24" target="Ga3xgDzzd5rRUBb3BQOW-33">
          <mxGeometry relative="1" as="geometry" />
        </mxCell>
        <mxCell id="Ga3xgDzzd5rRUBb3BQOW-103" value="False" style="edgeLabel;html=1;align=center;verticalAlign=middle;resizable=0;points=[];fontSize=14;fontStyle=0" vertex="1" connectable="0" parent="Ga3xgDzzd5rRUBb3BQOW-34">
          <mxGeometry x="-0.6947" y="-2" relative="1" as="geometry">
            <mxPoint as="offset" />
          </mxGeometry>
        </mxCell>
        <mxCell id="Ga3xgDzzd5rRUBb3BQOW-24" value="d&amp;gt;=e" style="rhombus;whiteSpace=wrap;html=1;fontSize=14;fontStyle=0" vertex="1" parent="1">
          <mxGeometry x="-790" y="540" width="80" height="80" as="geometry" />
        </mxCell>
        <mxCell id="Ga3xgDzzd5rRUBb3BQOW-30" value="D is max" style="shape=parallelogram;perimeter=parallelogramPerimeter;whiteSpace=wrap;html=1;fixedSize=1;fontSize=14;fontStyle=0" vertex="1" parent="1">
          <mxGeometry x="-830" y="700" width="120" height="60" as="geometry" />
        </mxCell>
        <mxCell id="Ga3xgDzzd5rRUBb3BQOW-33" value="E is max" style="shape=parallelogram;perimeter=parallelogramPerimeter;whiteSpace=wrap;html=1;fixedSize=1;fontSize=14;fontStyle=0" vertex="1" parent="1">
          <mxGeometry x="-700" y="700" width="120" height="60" as="geometry" />
        </mxCell>
        <mxCell id="Ga3xgDzzd5rRUBb3BQOW-38" value="" style="edgeStyle=orthogonalEdgeStyle;rounded=0;orthogonalLoop=1;jettySize=auto;html=1;fontSize=14;fontStyle=0" edge="1" parent="1" source="Ga3xgDzzd5rRUBb3BQOW-35" target="Ga3xgDzzd5rRUBb3BQOW-37">
          <mxGeometry relative="1" as="geometry">
            <Array as="points">
              <mxPoint x="-450" y="500" />
            </Array>
          </mxGeometry>
        </mxCell>
        <mxCell id="Ga3xgDzzd5rRUBb3BQOW-112" value="True" style="edgeLabel;html=1;align=center;verticalAlign=middle;resizable=0;points=[];fontSize=14;fontStyle=0" vertex="1" connectable="0" parent="Ga3xgDzzd5rRUBb3BQOW-38">
          <mxGeometry x="-0.6364" y="1" relative="1" as="geometry">
            <mxPoint as="offset" />
          </mxGeometry>
        </mxCell>
        <mxCell id="Ga3xgDzzd5rRUBb3BQOW-44" value="" style="edgeStyle=orthogonalEdgeStyle;rounded=0;orthogonalLoop=1;jettySize=auto;html=1;fontSize=14;fontStyle=0" edge="1" parent="1" source="Ga3xgDzzd5rRUBb3BQOW-35" target="Ga3xgDzzd5rRUBb3BQOW-43">
          <mxGeometry relative="1" as="geometry" />
        </mxCell>
        <mxCell id="Ga3xgDzzd5rRUBb3BQOW-113" value="False" style="edgeLabel;html=1;align=center;verticalAlign=middle;resizable=0;points=[];fontSize=14;fontStyle=0" vertex="1" connectable="0" parent="Ga3xgDzzd5rRUBb3BQOW-44">
          <mxGeometry x="-0.6933" y="2" relative="1" as="geometry">
            <mxPoint as="offset" />
          </mxGeometry>
        </mxCell>
        <mxCell id="Ga3xgDzzd5rRUBb3BQOW-35" value="b&amp;gt;=d" style="rhombus;whiteSpace=wrap;html=1;strokeWidth=2;rounded=1;arcSize=12;fontSize=14;fontStyle=0" vertex="1" parent="1">
          <mxGeometry x="-410" y="460" width="80" height="80" as="geometry" />
        </mxCell>
        <mxCell id="Ga3xgDzzd5rRUBb3BQOW-40" value="" style="edgeStyle=orthogonalEdgeStyle;rounded=0;orthogonalLoop=1;jettySize=auto;html=1;fontSize=14;fontStyle=0" edge="1" parent="1" source="Ga3xgDzzd5rRUBb3BQOW-37" target="Ga3xgDzzd5rRUBb3BQOW-39">
          <mxGeometry relative="1" as="geometry">
            <Array as="points">
              <mxPoint x="-530" y="610" />
            </Array>
          </mxGeometry>
        </mxCell>
        <mxCell id="Ga3xgDzzd5rRUBb3BQOW-104" value="True" style="edgeLabel;html=1;align=center;verticalAlign=middle;resizable=0;points=[];fontSize=14;fontStyle=0" vertex="1" connectable="0" parent="Ga3xgDzzd5rRUBb3BQOW-40">
          <mxGeometry x="-0.6462" y="1" relative="1" as="geometry">
            <mxPoint as="offset" />
          </mxGeometry>
        </mxCell>
        <mxCell id="Ga3xgDzzd5rRUBb3BQOW-42" value="" style="edgeStyle=orthogonalEdgeStyle;rounded=0;orthogonalLoop=1;jettySize=auto;html=1;fontSize=14;fontStyle=0" edge="1" parent="1" source="Ga3xgDzzd5rRUBb3BQOW-37" target="Ga3xgDzzd5rRUBb3BQOW-41">
          <mxGeometry relative="1" as="geometry">
            <Array as="points">
              <mxPoint x="-370" y="610" />
            </Array>
          </mxGeometry>
        </mxCell>
        <mxCell id="Ga3xgDzzd5rRUBb3BQOW-105" value="False" style="edgeLabel;html=1;align=center;verticalAlign=middle;resizable=0;points=[];fontSize=14;fontStyle=0" vertex="1" connectable="0" parent="Ga3xgDzzd5rRUBb3BQOW-42">
          <mxGeometry x="-0.7231" y="-2" relative="1" as="geometry">
            <mxPoint as="offset" />
          </mxGeometry>
        </mxCell>
        <mxCell id="Ga3xgDzzd5rRUBb3BQOW-37" value="b&amp;gt;=e" style="rhombus;whiteSpace=wrap;html=1;strokeWidth=2;rounded=1;arcSize=12;fontSize=14;fontStyle=0" vertex="1" parent="1">
          <mxGeometry x="-490" y="570" width="80" height="80" as="geometry" />
        </mxCell>
        <mxCell id="Ga3xgDzzd5rRUBb3BQOW-39" value="B is max" style="shape=parallelogram;perimeter=parallelogramPerimeter;whiteSpace=wrap;html=1;fixedSize=1;fontSize=14;strokeWidth=2;rounded=1;arcSize=12;fontStyle=0" vertex="1" parent="1">
          <mxGeometry x="-590" y="700" width="120" height="60" as="geometry" />
        </mxCell>
        <mxCell id="Ga3xgDzzd5rRUBb3BQOW-41" value="E is max" style="shape=parallelogram;perimeter=parallelogramPerimeter;whiteSpace=wrap;html=1;fixedSize=1;fontSize=14;strokeWidth=2;rounded=1;arcSize=12;fontStyle=0" vertex="1" parent="1">
          <mxGeometry x="-450" y="700" width="120" height="60" as="geometry" />
        </mxCell>
        <mxCell id="Ga3xgDzzd5rRUBb3BQOW-46" value="" style="edgeStyle=orthogonalEdgeStyle;rounded=0;orthogonalLoop=1;jettySize=auto;html=1;fontSize=14;fontStyle=0" edge="1" parent="1" source="Ga3xgDzzd5rRUBb3BQOW-43" target="Ga3xgDzzd5rRUBb3BQOW-45">
          <mxGeometry relative="1" as="geometry">
            <Array as="points">
              <mxPoint x="-310" y="610" />
            </Array>
          </mxGeometry>
        </mxCell>
        <mxCell id="Ga3xgDzzd5rRUBb3BQOW-48" value="" style="edgeStyle=orthogonalEdgeStyle;rounded=0;orthogonalLoop=1;jettySize=auto;html=1;fontSize=14;fontStyle=0" edge="1" parent="1" source="Ga3xgDzzd5rRUBb3BQOW-43" target="Ga3xgDzzd5rRUBb3BQOW-47">
          <mxGeometry relative="1" as="geometry">
            <Array as="points">
              <mxPoint x="-160" y="610" />
            </Array>
          </mxGeometry>
        </mxCell>
        <mxCell id="Ga3xgDzzd5rRUBb3BQOW-115" value="False" style="edgeLabel;html=1;align=center;verticalAlign=middle;resizable=0;points=[];fontSize=14;fontStyle=0" vertex="1" connectable="0" parent="Ga3xgDzzd5rRUBb3BQOW-48">
          <mxGeometry x="-0.7" y="1" relative="1" as="geometry">
            <mxPoint as="offset" />
          </mxGeometry>
        </mxCell>
        <mxCell id="Ga3xgDzzd5rRUBb3BQOW-43" value="d&amp;gt;=e" style="rhombus;whiteSpace=wrap;html=1;strokeWidth=2;rounded=1;arcSize=12;fontSize=14;fontStyle=0" vertex="1" parent="1">
          <mxGeometry x="-290" y="570" width="80" height="80" as="geometry" />
        </mxCell>
        <mxCell id="Ga3xgDzzd5rRUBb3BQOW-45" value="D is max" style="shape=parallelogram;perimeter=parallelogramPerimeter;whiteSpace=wrap;html=1;fixedSize=1;fontSize=14;strokeWidth=2;rounded=1;arcSize=12;fontStyle=0" vertex="1" parent="1">
          <mxGeometry x="-340" y="700" width="120" height="60" as="geometry" />
        </mxCell>
        <mxCell id="Ga3xgDzzd5rRUBb3BQOW-47" value="E is max" style="shape=parallelogram;perimeter=parallelogramPerimeter;whiteSpace=wrap;html=1;fixedSize=1;fontSize=14;strokeWidth=2;rounded=1;arcSize=12;fontStyle=0" vertex="1" parent="1">
          <mxGeometry x="-220" y="700" width="120" height="60" as="geometry" />
        </mxCell>
        <mxCell id="Ga3xgDzzd5rRUBb3BQOW-53" value="" style="edgeStyle=orthogonalEdgeStyle;rounded=0;orthogonalLoop=1;jettySize=auto;html=1;fontSize=14;fontStyle=0" edge="1" parent="1" source="Ga3xgDzzd5rRUBb3BQOW-50" target="Ga3xgDzzd5rRUBb3BQOW-52">
          <mxGeometry relative="1" as="geometry" />
        </mxCell>
        <mxCell id="Ga3xgDzzd5rRUBb3BQOW-118" value="True" style="edgeLabel;html=1;align=center;verticalAlign=middle;resizable=0;points=[];fontSize=14;fontStyle=0" vertex="1" connectable="0" parent="Ga3xgDzzd5rRUBb3BQOW-53">
          <mxGeometry x="-0.3867" relative="1" as="geometry">
            <mxPoint as="offset" />
          </mxGeometry>
        </mxCell>
        <mxCell id="Ga3xgDzzd5rRUBb3BQOW-61" value="" style="edgeStyle=orthogonalEdgeStyle;rounded=0;orthogonalLoop=1;jettySize=auto;html=1;fontSize=14;fontStyle=0" edge="1" parent="1" source="Ga3xgDzzd5rRUBb3BQOW-50" target="Ga3xgDzzd5rRUBb3BQOW-60">
          <mxGeometry relative="1" as="geometry" />
        </mxCell>
        <mxCell id="Ga3xgDzzd5rRUBb3BQOW-119" value="False" style="edgeLabel;html=1;align=center;verticalAlign=middle;resizable=0;points=[];fontSize=14;fontStyle=0" vertex="1" connectable="0" parent="Ga3xgDzzd5rRUBb3BQOW-61">
          <mxGeometry x="-0.58" relative="1" as="geometry">
            <mxPoint as="offset" />
          </mxGeometry>
        </mxCell>
        <mxCell id="Ga3xgDzzd5rRUBb3BQOW-50" value="c&amp;gt;=d" style="rhombus;whiteSpace=wrap;html=1;strokeWidth=2;rounded=1;arcSize=12;fontSize=14;fontStyle=0" vertex="1" parent="1">
          <mxGeometry x="60" y="460" width="80" height="80" as="geometry" />
        </mxCell>
        <mxCell id="Ga3xgDzzd5rRUBb3BQOW-55" value="" style="edgeStyle=orthogonalEdgeStyle;rounded=0;orthogonalLoop=1;jettySize=auto;html=1;exitX=0;exitY=0.5;exitDx=0;exitDy=0;fontSize=14;fontStyle=0" edge="1" parent="1" source="Ga3xgDzzd5rRUBb3BQOW-52" target="Ga3xgDzzd5rRUBb3BQOW-54">
          <mxGeometry relative="1" as="geometry">
            <Array as="points">
              <mxPoint x="-80" y="610" />
            </Array>
          </mxGeometry>
        </mxCell>
        <mxCell id="Ga3xgDzzd5rRUBb3BQOW-59" value="" style="edgeStyle=orthogonalEdgeStyle;rounded=0;orthogonalLoop=1;jettySize=auto;html=1;fontSize=14;fontStyle=0" edge="1" parent="1" source="Ga3xgDzzd5rRUBb3BQOW-52" target="Ga3xgDzzd5rRUBb3BQOW-58">
          <mxGeometry relative="1" as="geometry">
            <Array as="points">
              <mxPoint x="70" y="610" />
            </Array>
          </mxGeometry>
        </mxCell>
        <mxCell id="Ga3xgDzzd5rRUBb3BQOW-117" value="False" style="edgeLabel;html=1;align=center;verticalAlign=middle;resizable=0;points=[];fontSize=14;fontStyle=0" vertex="1" connectable="0" parent="Ga3xgDzzd5rRUBb3BQOW-59">
          <mxGeometry x="-0.6143" y="-1" relative="1" as="geometry">
            <mxPoint as="offset" />
          </mxGeometry>
        </mxCell>
        <mxCell id="Ga3xgDzzd5rRUBb3BQOW-52" value="c&amp;gt;=e" style="rhombus;whiteSpace=wrap;html=1;strokeWidth=2;rounded=1;arcSize=12;fontSize=14;fontStyle=0" vertex="1" parent="1">
          <mxGeometry x="-60" y="570" width="80" height="80" as="geometry" />
        </mxCell>
        <mxCell id="Ga3xgDzzd5rRUBb3BQOW-54" value="C is max" style="shape=parallelogram;perimeter=parallelogramPerimeter;whiteSpace=wrap;html=1;fixedSize=1;fontSize=14;strokeWidth=2;rounded=1;arcSize=12;fontStyle=0" vertex="1" parent="1">
          <mxGeometry x="-110" y="700" width="120" height="60" as="geometry" />
        </mxCell>
        <mxCell id="Ga3xgDzzd5rRUBb3BQOW-58" value="E is max" style="shape=parallelogram;perimeter=parallelogramPerimeter;whiteSpace=wrap;html=1;fixedSize=1;fontSize=14;strokeWidth=2;rounded=1;arcSize=12;fontStyle=0" vertex="1" parent="1">
          <mxGeometry x="10" y="700" width="120" height="60" as="geometry" />
        </mxCell>
        <mxCell id="Ga3xgDzzd5rRUBb3BQOW-63" value="" style="edgeStyle=orthogonalEdgeStyle;rounded=0;orthogonalLoop=1;jettySize=auto;html=1;fontSize=14;fontStyle=0" edge="1" parent="1" source="Ga3xgDzzd5rRUBb3BQOW-60" target="Ga3xgDzzd5rRUBb3BQOW-62">
          <mxGeometry relative="1" as="geometry">
            <Array as="points">
              <mxPoint x="190" y="620" />
            </Array>
          </mxGeometry>
        </mxCell>
        <mxCell id="Ga3xgDzzd5rRUBb3BQOW-121" value="True" style="edgeLabel;html=1;align=center;verticalAlign=middle;resizable=0;points=[];fontSize=14;fontStyle=0" vertex="1" connectable="0" parent="Ga3xgDzzd5rRUBb3BQOW-63">
          <mxGeometry x="-0.7818" relative="1" as="geometry">
            <mxPoint as="offset" />
          </mxGeometry>
        </mxCell>
        <mxCell id="Ga3xgDzzd5rRUBb3BQOW-65" value="" style="edgeStyle=orthogonalEdgeStyle;rounded=0;orthogonalLoop=1;jettySize=auto;html=1;fontSize=14;fontStyle=0" edge="1" parent="1" source="Ga3xgDzzd5rRUBb3BQOW-60" target="Ga3xgDzzd5rRUBb3BQOW-64">
          <mxGeometry relative="1" as="geometry">
            <Array as="points">
              <mxPoint x="360" y="620" />
            </Array>
          </mxGeometry>
        </mxCell>
        <mxCell id="Ga3xgDzzd5rRUBb3BQOW-122" value="False" style="edgeLabel;html=1;align=center;verticalAlign=middle;resizable=0;points=[];fontSize=14;fontStyle=0" vertex="1" connectable="0" parent="Ga3xgDzzd5rRUBb3BQOW-65">
          <mxGeometry x="-0.6714" y="1" relative="1" as="geometry">
            <mxPoint as="offset" />
          </mxGeometry>
        </mxCell>
        <mxCell id="Ga3xgDzzd5rRUBb3BQOW-60" value="d&amp;gt;=e" style="rhombus;whiteSpace=wrap;html=1;strokeWidth=2;rounded=1;arcSize=12;fontSize=14;fontStyle=0" vertex="1" parent="1">
          <mxGeometry x="220" y="580" width="80" height="80" as="geometry" />
        </mxCell>
        <mxCell id="Ga3xgDzzd5rRUBb3BQOW-62" value="D is max" style="shape=parallelogram;perimeter=parallelogramPerimeter;whiteSpace=wrap;html=1;fixedSize=1;fontSize=14;strokeWidth=2;rounded=1;arcSize=12;fontStyle=0" vertex="1" parent="1">
          <mxGeometry x="130" y="700" width="120" height="60" as="geometry" />
        </mxCell>
        <mxCell id="Ga3xgDzzd5rRUBb3BQOW-64" value="E is max" style="shape=parallelogram;perimeter=parallelogramPerimeter;whiteSpace=wrap;html=1;fixedSize=1;fontSize=14;strokeWidth=2;rounded=1;arcSize=12;fontStyle=0" vertex="1" parent="1">
          <mxGeometry x="300" y="700" width="120" height="60" as="geometry" />
        </mxCell>
        <mxCell id="Ga3xgDzzd5rRUBb3BQOW-66" value="" style="ellipse;whiteSpace=wrap;html=1;aspect=fixed;fontSize=14;fontStyle=0" vertex="1" parent="1">
          <mxGeometry x="-810" y="850" width="80" height="80" as="geometry" />
        </mxCell>
        <mxCell id="Ga3xgDzzd5rRUBb3BQOW-68" value="" style="endArrow=classic;html=1;rounded=0;exitX=0.392;exitY=1.05;exitDx=0;exitDy=0;exitPerimeter=0;entryX=0;entryY=0.388;entryDx=0;entryDy=0;entryPerimeter=0;fontSize=14;fontStyle=0" edge="1" parent="1" target="Ga3xgDzzd5rRUBb3BQOW-66">
          <mxGeometry width="50" height="50" relative="1" as="geometry">
            <mxPoint x="-1542.96" y="760" as="sourcePoint" />
            <mxPoint x="-930" y="907" as="targetPoint" />
            <Array as="points">
              <mxPoint x="-1543" y="881" />
              <mxPoint x="-1120" y="881" />
            </Array>
          </mxGeometry>
        </mxCell>
        <mxCell id="Ga3xgDzzd5rRUBb3BQOW-74" value="" style="endArrow=none;html=1;rounded=0;entryX=0.5;entryY=1;entryDx=0;entryDy=0;fontSize=14;fontStyle=0" edge="1" parent="1" target="Ga3xgDzzd5rRUBb3BQOW-6">
          <mxGeometry width="50" height="50" relative="1" as="geometry">
            <mxPoint x="-1390" y="880" as="sourcePoint" />
            <mxPoint x="-1370" y="790" as="targetPoint" />
          </mxGeometry>
        </mxCell>
        <mxCell id="Ga3xgDzzd5rRUBb3BQOW-75" value="" style="endArrow=none;html=1;rounded=0;entryX=0.5;entryY=1;entryDx=0;entryDy=0;fontSize=14;fontStyle=0" edge="1" parent="1">
          <mxGeometry width="50" height="50" relative="1" as="geometry">
            <mxPoint x="-1280" y="880" as="sourcePoint" />
            <mxPoint x="-1280" y="760" as="targetPoint" />
          </mxGeometry>
        </mxCell>
        <mxCell id="Ga3xgDzzd5rRUBb3BQOW-76" value="" style="endArrow=none;html=1;rounded=0;entryX=0.5;entryY=1;entryDx=0;entryDy=0;fontSize=14;fontStyle=0" edge="1" parent="1">
          <mxGeometry width="50" height="50" relative="1" as="geometry">
            <mxPoint x="-1150" y="880" as="sourcePoint" />
            <mxPoint x="-1150" y="760" as="targetPoint" />
          </mxGeometry>
        </mxCell>
        <mxCell id="Ga3xgDzzd5rRUBb3BQOW-77" value="" style="endArrow=none;html=1;rounded=0;entryX=0.5;entryY=1;entryDx=0;entryDy=0;fontSize=14;fontStyle=0" edge="1" parent="1">
          <mxGeometry width="50" height="50" relative="1" as="geometry">
            <mxPoint x="-1030" y="880" as="sourcePoint" />
            <mxPoint x="-1030" y="760" as="targetPoint" />
          </mxGeometry>
        </mxCell>
        <mxCell id="Ga3xgDzzd5rRUBb3BQOW-78" value="" style="endArrow=none;html=1;rounded=0;entryX=0.5;entryY=1;entryDx=0;entryDy=0;fontSize=14;fontStyle=0" edge="1" parent="1">
          <mxGeometry width="50" height="50" relative="1" as="geometry">
            <mxPoint x="-900" y="880" as="sourcePoint" />
            <mxPoint x="-900" y="760" as="targetPoint" />
          </mxGeometry>
        </mxCell>
        <mxCell id="Ga3xgDzzd5rRUBb3BQOW-79" value="" style="endArrow=none;html=1;rounded=0;entryX=0.5;entryY=1;entryDx=0;entryDy=0;fontSize=14;fontStyle=0" edge="1" parent="1">
          <mxGeometry width="50" height="50" relative="1" as="geometry">
            <mxPoint x="-640.5" y="880" as="sourcePoint" />
            <mxPoint x="-640.5" y="760" as="targetPoint" />
          </mxGeometry>
        </mxCell>
        <mxCell id="Ga3xgDzzd5rRUBb3BQOW-81" value="" style="endArrow=classic;html=1;rounded=0;entryX=1.025;entryY=0.425;entryDx=0;entryDy=0;entryPerimeter=0;exitX=0.5;exitY=1;exitDx=0;exitDy=0;fontSize=14;fontStyle=0" edge="1" parent="1" source="Ga3xgDzzd5rRUBb3BQOW-64">
          <mxGeometry width="50" height="50" relative="1" as="geometry">
            <mxPoint x="360" y="880" as="sourcePoint" />
            <mxPoint x="-730" y="880" as="targetPoint" />
            <Array as="points">
              <mxPoint x="360" y="880" />
            </Array>
          </mxGeometry>
        </mxCell>
        <mxCell id="Ga3xgDzzd5rRUBb3BQOW-82" value="" style="endArrow=none;html=1;rounded=0;entryX=0.5;entryY=1;entryDx=0;entryDy=0;fontSize=14;fontStyle=0" edge="1" parent="1">
          <mxGeometry width="50" height="50" relative="1" as="geometry">
            <mxPoint x="-530.5" y="880" as="sourcePoint" />
            <mxPoint x="-530.5" y="760" as="targetPoint" />
          </mxGeometry>
        </mxCell>
        <mxCell id="Ga3xgDzzd5rRUBb3BQOW-83" value="" style="endArrow=none;html=1;rounded=0;entryX=0.5;entryY=1;entryDx=0;entryDy=0;fontSize=14;fontStyle=0" edge="1" parent="1">
          <mxGeometry width="50" height="50" relative="1" as="geometry">
            <mxPoint x="-400" y="880" as="sourcePoint" />
            <mxPoint x="-400" y="760" as="targetPoint" />
          </mxGeometry>
        </mxCell>
        <mxCell id="Ga3xgDzzd5rRUBb3BQOW-84" value="" style="endArrow=none;html=1;rounded=0;entryX=0.5;entryY=1;entryDx=0;entryDy=0;fontSize=14;fontStyle=0" edge="1" parent="1">
          <mxGeometry width="50" height="50" relative="1" as="geometry">
            <mxPoint x="-280.5" y="880" as="sourcePoint" />
            <mxPoint x="-280.5" y="760" as="targetPoint" />
          </mxGeometry>
        </mxCell>
        <mxCell id="Ga3xgDzzd5rRUBb3BQOW-85" value="" style="endArrow=none;html=1;rounded=0;entryX=0.5;entryY=1;entryDx=0;entryDy=0;fontSize=14;fontStyle=0" edge="1" parent="1">
          <mxGeometry width="50" height="50" relative="1" as="geometry">
            <mxPoint x="-160" y="880" as="sourcePoint" />
            <mxPoint x="-160" y="760" as="targetPoint" />
          </mxGeometry>
        </mxCell>
        <mxCell id="Ga3xgDzzd5rRUBb3BQOW-86" value="" style="endArrow=none;html=1;rounded=0;entryX=0.5;entryY=1;entryDx=0;entryDy=0;fontSize=14;fontStyle=0" edge="1" parent="1">
          <mxGeometry width="50" height="50" relative="1" as="geometry">
            <mxPoint x="-60" y="880" as="sourcePoint" />
            <mxPoint x="-60" y="760" as="targetPoint" />
          </mxGeometry>
        </mxCell>
        <mxCell id="Ga3xgDzzd5rRUBb3BQOW-87" value="" style="endArrow=none;html=1;rounded=0;entryX=0.5;entryY=1;entryDx=0;entryDy=0;fontSize=14;fontStyle=0" edge="1" parent="1">
          <mxGeometry width="50" height="50" relative="1" as="geometry">
            <mxPoint x="60" y="880" as="sourcePoint" />
            <mxPoint x="60" y="760" as="targetPoint" />
          </mxGeometry>
        </mxCell>
        <mxCell id="Ga3xgDzzd5rRUBb3BQOW-88" value="" style="endArrow=none;html=1;rounded=0;entryX=0.5;entryY=1;entryDx=0;entryDy=0;fontSize=14;fontStyle=0" edge="1" parent="1">
          <mxGeometry width="50" height="50" relative="1" as="geometry">
            <mxPoint x="189.5" y="880" as="sourcePoint" />
            <mxPoint x="189.5" y="760" as="targetPoint" />
          </mxGeometry>
        </mxCell>
        <mxCell id="Ga3xgDzzd5rRUBb3BQOW-89" value="" style="endArrow=classic;html=1;rounded=0;entryX=0.5;entryY=0;entryDx=0;entryDy=0;exitX=0.5;exitY=1;exitDx=0;exitDy=0;fontSize=14;fontStyle=0" edge="1" parent="1" source="Ga3xgDzzd5rRUBb3BQOW-30" target="Ga3xgDzzd5rRUBb3BQOW-66">
          <mxGeometry width="50" height="50" relative="1" as="geometry">
            <mxPoint x="-790" y="820" as="sourcePoint" />
            <mxPoint x="-740" y="770" as="targetPoint" />
          </mxGeometry>
        </mxCell>
        <mxCell id="Ga3xgDzzd5rRUBb3BQOW-90" value="End" style="ellipse;whiteSpace=wrap;html=1;fontSize=14;fontStyle=0" vertex="1" parent="1">
          <mxGeometry x="-830" y="980" width="120" height="80" as="geometry" />
        </mxCell>
        <mxCell id="Ga3xgDzzd5rRUBb3BQOW-91" value="" style="endArrow=classic;html=1;rounded=0;entryX=0.5;entryY=0;entryDx=0;entryDy=0;exitX=0.5;exitY=1;exitDx=0;exitDy=0;fontSize=14;fontStyle=0" edge="1" parent="1" source="Ga3xgDzzd5rRUBb3BQOW-66" target="Ga3xgDzzd5rRUBb3BQOW-90">
          <mxGeometry width="50" height="50" relative="1" as="geometry">
            <mxPoint x="-850" y="990" as="sourcePoint" />
            <mxPoint x="-800" y="940" as="targetPoint" />
          </mxGeometry>
        </mxCell>
        <mxCell id="Ga3xgDzzd5rRUBb3BQOW-102" value="True" style="text;html=1;align=center;verticalAlign=middle;resizable=0;points=[];autosize=1;strokeColor=none;fillColor=none;fontSize=14;fontStyle=0" vertex="1" parent="1">
          <mxGeometry x="-825" y="548" width="50" height="30" as="geometry" />
        </mxCell>
        <mxCell id="Ga3xgDzzd5rRUBb3BQOW-114" value="True" style="text;html=1;align=center;verticalAlign=middle;resizable=0;points=[];autosize=1;strokeColor=none;fillColor=none;fontSize=14;fontStyle=0" vertex="1" parent="1">
          <mxGeometry x="-325" y="578" width="50" height="30" as="geometry" />
        </mxCell>
        <mxCell id="Ga3xgDzzd5rRUBb3BQOW-116" value="True" style="text;html=1;align=center;verticalAlign=middle;resizable=0;points=[];autosize=1;strokeColor=none;fillColor=none;fontSize=14;fontStyle=0" vertex="1" parent="1">
          <mxGeometry x="-95" y="578" width="50" height="30" as="geometry" />
        </mxCell>
      </root>
    </mxGraphModel>
  </diagram>
</mxfile>
